PathFileType	4	(x/y/z)	S10_PSF_T09
DataRate	CameraRate	NumFrames	NumMarkers	Units	OrigDataRate	OrigDataStartFrame	OrigNumFrames
240	240	8	51	mm	240	214	427
Frame#	Time	Sternum			R.Acromium			L.Acromium			Top.Head			R.ASIS			L.ASIS			R.PSIS			L.PSIS			R.Great.Tro			L.Great.Tro			R.Iliac.Crest			L.Iliac.Crest			V.Sacral			R.Thigh.Upper.Post			R.Thigh.Lower.Ant			R.Thigh.Lower.Post			R.Thigh.Upper.Ant			R.Knee.Lat			R.Knee.Med			R.Shank.Upper.Post			R.Shank.Lower.Ant			R.Shank.Lower.Post			R.Shank.Upper.Ant			R.Ankle.Lat			R.Ankle.Med			R.Heel.Upper			R.Heel.Med			R.Heel.Lat			R.Toe.Lat			R.Toe.Med			R.Toe.Tip			L.Thigh.Upper.Post			L.Thigh.Lower.Ant			L.Thigh.Lower.Post			L.Thigh.Upper.Ant			L.Knee.Lat			L.Knee.Med			L.Shank.Upper.Post			L.Shank.Lower.Ant			L.Shank.Lower.Post			L.Shank.Upper.Ant			L.Ankle.Lat			L.Ankle.Med			L.Heel.Upper			L.Heel.Med			L.Heel.Lat			L.Toe.Lat			L.Toe.Med			L.Toe.Tip			Cervical.Spine			Back			
		X1	Y1	Z1	X2	Y2	Z2	X3	Y3	Z3	X4	Y4	Z4	X5	Y5	Z5	X6	Y6	Z6	X7	Y7	Z7	X8	Y8	Z8	X9	Y9	Z9	X10	Y10	Z10	X11	Y11	Z11	X12	Y12	Z12	X13	Y13	Z13	X14	Y14	Z14	X15	Y15	Z15	X16	Y16	Z16	X17	Y17	Z17	X18	Y18	Z18	X19	Y19	Z19	X20	Y20	Z20	X21	Y21	Z21	X22	Y22	Z22	X23	Y23	Z23	X24	Y24	Z24	X25	Y25	Z25	X26	Y26	Z26	X27	Y27	Z27	X28	Y28	Z28	X29	Y29	Z29	X30	Y30	Z30	X31	Y31	Z31	X32	Y32	Z32	X33	Y33	Z33	X34	Y34	Z34	X35	Y35	Z35	X36	Y36	Z36	X37	Y37	Z37	X38	Y38	Z38	X39	Y39	Z39	X40	Y40	Z40	X41	Y41	Z41	X42	Y42	Z42	X43	Y43	Z43	X44	Y44	Z44	X45	Y45	Z45	X46	Y46	Z46	X47	Y47	Z47	X48	Y48	Z48	X49	Y49	Z49	X50	Y50	Z50	X51	Y51	Z51	

214	0.8875	-304.8	1289.1	335.85	-402.55	1444.1	503.5	-446.83	1465.9	201.08	-467.58	1757.4	374.19	-350.36	1013.4	451.26	-371.02	1033.9	223.06	-559.08	1035.1	380.32	-560.98	1042.3	300.07	-419.16	935.94	528.36	-433.38	971.29	167.85	-438.52	1094.3	503.31	-439.98	1106.8	202.94	-580.76	1003.8	345.65	-424.7	723.28	510.01	-378.72	643.35	465.09	-440.34	636.03	495.4	-360.69	732.4	476.13	-464.12	513	454.22	-478.02	523.16	327.94	-563.47	296.96	450.9	-507.04	227.74	431.19	-571.34	223.51	442.35	-492.75	303.55	439.35	-567.8	114.09	416.93	-559.56	127.98	339.12	-636.06	67.599	370.4	-626.34	38.769	343.89	-631.56	44.145	405.36	-460.14	39.898	453.79	-428.47	42.498	344.34	-370.62	56.887	388.64	-357.49	694.43	160.31	-255.87	650.82	170.25	-317.61	609.12	178.45	-289.9	733.32	152.53	-265.88	545.23	181.26	-222.51	544.8	306.25	-392.42	373.21	199.82	-361.15	267.54	196.29	-415.53	299.45	207.53	-338.01	340.58	188.37	-431.35	171.12	212.88	-396.06	173	292.33	-492.83	164.45	269.12	-488.41	129.93	300.19	-503.96	135.8	238.31	-355.22	61.618	169.75	-308.31	57.042	268.2	-263.45	54.033	212.69	-502.42	1506.1	373.57	-587.01	1299.3	367.08
215	0.89167	-299.69	1288.9	335.91	-396.88	1444.2	503.53	-442.01	1465.3	201.2	-462.29	1757.1	373.99	-345.32	1012.8	451.33	-366.07	1033.7	223.25	-554.06	1034.8	380.45	-555.99	1042.1	300.18	-414.52	935.4	528.4	-428.19	971.41	167.88	-433.28	1093.8	503.45	-434.94	1106.8	203.23	-575.72	1003.6	345.71	-421.83	722.98	510.15	-376.53	642.62	465.28	-438.23	635.85	495.57	-357.75	731.52	476.29	-463.34	512.98	454.62	-476.96	523.17	328.23	-563.16	297.23	451.07	-506.83	227.97	431.41	-571.14	223.79	442.46	-492.44	303.77	439.69	-567.64	114.29	416.96	-559.3	128.19	339.19	-635.97	67.709	370.33	-626.24	38.892	343.88	-631.51	44.276	405.3	-460.1	39.854	453.81	-428.42	42.477	344.37	-370.52	56.759	388.7	-351.34	694.82	160.45	-249.87	651.32	171.07	-311.29	609.57	178.8	-283.8	733.87	153.09	-259.18	545.61	181.89	-216.64	545.67	306.97	-381.81	370.04	199.74	-347.72	265.29	196.53	-402.99	295.76	207.42	-326.51	338.88	188.66	-415.43	167.02	212.71	-380.39	169.75	292.38	-476.94	158.62	268.85	-471.53	124.16	299.93	-487.13	129.64	238.02	-336.19	59.624	169.77	-289.39	56.324	268.35	-244.32	54.587	212.94	-497.19	1505.8	373.83	-581.83	1299.1	367.79
216	0.89583	-294.56	1288.6	335.95	-391.2	1444.2	503.55	-437.17	1464.7	201.31	-456.99	1756.7	373.77	-340.28	1012.2	451.39	-361.09	1033.6	223.44	-549.02	1034.5	380.55	-550.97	1041.9	300.26	-409.89	934.83	528.43	-422.98	971.47	167.89	-428.07	1093.2	503.57	-429.87	1106.7	203.49	-570.67	1003.3	345.74	-418.96	722.67	510.3	-374.35	641.88	465.48	-436.12	635.66	495.76	-354.82	730.62	476.45	-462.55	512.96	455.01	-475.89	523.19	328.51	-562.85	297.51	451.24	-506.63	228.21	431.63	-570.95	224.09	442.57	-492.14	303.99	440.04	-567.48	114.49	416.98	-559.02	128.39	339.25	-635.87	67.829	370.26	-626.12	39.026	343.87	-631.45	44.416	405.24	-460.07	39.809	453.83	-428.37	42.458	344.41	-370.42	56.633	388.78	-345.28	695.11	160.62	-243.99	651.7	171.92	-305.09	609.92	179.18	-277.77	734.29	153.67	-252.63	545.86	182.53	-210.91	546.38	307.69	-371.17	366.83	199.64	-334.26	263.08	196.77	-390.38	292.04	207.3	-315.01	337.16	188.93	-399.39	163.01	212.53	-364.63	166.56	292.41	-460.83	152.86	268.56	-454.46	118.5	299.67	-470.09	123.59	237.72	-317.08	57.779	169.79	-270.44	55.741	268.48	-225.19	55.279	213.17	-491.95	1505.5	374.08	-576.64	1298.7	368.47
217	0.9	-289.41	1288.2	335.98	-385.52	1444.2	503.55	-432.31	1464	201.41	-451.69	1756.3	373.54	-335.23	1011.6	451.45	-356.06	1033.3	223.61	-543.97	1034.1	380.64	-545.93	1041.6	300.33	-405.26	934.22	528.46	-417.76	971.47	167.9	-422.86	1092.6	503.68	-424.75	1106.5	203.74	-565.61	1002.9	345.75	-416.1	722.33	510.46	-372.18	641.13	465.68	-434.01	635.46	495.95	-351.91	729.69	476.62	-461.75	512.93	455.39	-474.82	523.21	328.78	-562.55	297.81	451.39	-506.43	228.44	431.87	-570.76	224.41	442.67	-491.83	304.2	440.38	-567.33	114.7	417	-558.72	128.6	339.31	-635.76	67.961	370.18	-626.01	39.17	343.85	-631.39	44.564	405.16	-460.04	39.764	453.86	-428.3	42.442	344.45	-370.32	56.507	388.86	-339.32	695.31	160.83	-238.2	651.94	172.77	-299.01	610.15	179.58	-271.82	734.59	154.27	-246.21	546	183.18	-205.33	546.93	308.43	-360.51	363.57	199.52	-320.76	260.91	197	-377.7	288.33	207.15	-303.51	335.45	189.19	-383.23	159.09	212.34	-348.77	163.44	292.43	-444.52	147.2	268.25	-437.2	112.97	299.4	-452.86	117.66	237.4	-297.92	56.096	169.8	-251.46	55.306	268.61	-206.07	56.118	213.4	-486.69	1505.1	374.31	-571.43	1298.4	369.12
218	0.90417	-284.24	1287.8	336	-379.83	1444.1	503.54	-427.42	1463.3	201.49	-446.38	1755.9	373.3	-330.18	1010.9	451.51	-351	1033.1	223.78	-538.89	1033.7	380.7	-540.87	1041.3	300.37	-400.63	933.58	528.48	-412.52	971.41	167.9	-417.68	1092	503.77	-419.6	1106.3	203.97	-560.53	1002.6	345.74	-413.25	721.98	510.62	-370.01	640.36	465.89	-431.91	635.24	496.14	-349	728.74	476.79	-460.93	512.91	455.75	-473.75	523.24	329.04	-562.25	298.11	451.52	-506.22	228.67	432.12	-570.57	224.74	442.77	-491.52	304.42	440.73	-567.17	114.92	417.02	-558.42	128.8	339.36	-635.64	68.108	370.1	-625.89	39.326	343.83	-631.33	44.724	405.09	-460.01	39.719	453.89	-428.22	42.425	344.5	-370.21	56.381	388.95	-333.45	695.41	161.07	-232.51	652.06	173.63	-293.04	610.28	180	-265.96	734.76	154.88	-239.92	546.03	183.83	-199.89	547.32	309.19	-349.82	360.28	199.38	-307.23	258.8	197.21	-364.96	284.63	206.99	-292.02	333.75	189.44	-366.96	155.29	212.13	-332.83	160.42	292.44	-428.01	141.67	267.93	-419.77	107.58	299.11	-435.45	111.89	237.07	-278.72	54.589	169.81	-232.47	55.031	268.74	-186.99	57.115	213.62	-481.42	1504.7	374.52	-566.22	1297.9	369.75
219	0.90833	-279.04	1287.3	336	-374.14	1443.9	503.52	-422.51	1462.6	201.56	-441.06	1755.4	373.04	-325.12	1010.1	451.57	-345.9	1032.8	223.94	-533.81	1033.3	380.74	-535.77	1040.9	300.4	-396.01	932.91	528.5	-407.28	971.29	167.91	-412.5	1091.3	503.86	-414.41	1106.1	204.18	-555.42	1002.2	345.72	-410.4	721.61	510.78	-367.85	639.57	466.09	-429.82	635.02	496.33	-346.11	727.77	476.96	-460.09	512.88	456.1	-472.66	523.27	329.3	-561.95	298.42	451.63	-506	228.91	432.37	-570.38	225.08	442.85	-491.19	304.63	441.06	-567.02	115.15	417.03	-558.1	129.02	339.41	-635.52	68.272	370	-625.77	39.495	343.8	-631.26	44.896	405.01	-459.98	39.677	453.91	-428.13	42.406	344.55	-370.09	56.254	389.04	-327.69	695.42	161.33	-226.91	652.05	174.49	-287.22	610.29	180.44	-260.19	734.81	155.52	-233.78	545.93	184.49	-194.59	547.54	309.95	-339.12	356.97	199.22	-293.68	256.76	197.41	-352.17	280.95	206.81	-280.55	332.07	189.68	-350.6	151.6	211.91	-316.82	157.5	292.45	-411.33	136.26	267.59	-402.19	102.36	298.82	-417.87	106.28	236.73	-259.48	53.271	169.82	-213.49	54.929	268.87	-167.94	58.28	213.85	-476.14	1504.2	374.72	-561	1297.4	370.36
220	0.9125	-273.83	1286.8	335.99	-368.44	1443.7	503.48	-417.57	1461.7	201.61	-435.73	1754.9	372.77	-320.06	1009.4	451.62	-340.76	1032.4	224.09	-528.7	1032.8	380.76	-530.65	1040.6	300.4	-391.4	932.2	528.52	-402.02	971.11	167.91	-407.33	1090.6	503.93	-409.19	1105.8	204.38	-550.3	1001.8	345.67	-407.55	721.23	510.95	-365.7	638.77	466.29	-427.72	634.79	496.53	-343.22	726.79	477.13	-459.22	512.85	456.43	-471.56	523.3	329.53	-561.64	298.75	451.72	-505.77	229.14	432.63	-570.19	225.43	442.92	-490.86	304.84	441.39	-566.86	115.38	417.03	-557.79	129.23	339.46	-635.39	68.455	369.91	-625.64	39.678	343.76	-631.19	45.081	404.93	-459.96	39.636	453.94	-428.03	42.386	344.61	-369.97	56.124	389.13	-322.04	695.31	161.62	-221.41	651.91	175.35	-281.52	610.19	180.9	-254.51	734.72	156.16	-227.78	545.72	185.16	-189.44	547.59	310.73	-328.4	353.65	199.04	-280.12	254.8	197.6	-339.32	277.32	206.62	-269.09	330.42	189.92	-334.15	148.06	211.68	-300.74	154.71	292.45	-394.48	131.01	267.24	-384.48	97.318	298.51	-400.14	100.85	236.37	-240.22	52.156	169.84	-194.52	55.012	269	-148.94	59.623	214.08	-470.83	1503.7	374.9	-555.76	1296.9	370.93
221	0.91667	-268.59	1286.1	335.97	-362.75	1443.4	503.43	-412.61	1460.9	201.64	-430.4	1754.3	372.49	-314.99	1008.5	451.68	-335.58	1032	224.24	-523.57	1032.3	380.76	-525.5	1040.1	300.39	-386.78	931.47	528.54	-396.74	970.86	167.91	-402.16	1089.8	504	-403.94	1105.5	204.57	-545.17	1001.3	345.6	-404.7	720.83	511.12	-363.54	637.96	466.48	-425.63	634.56	496.72	-340.34	725.78	477.31	-458.32	512.82	456.73	-470.43	523.33	329.75	-561.33	299.08	451.8	-505.53	229.38	432.88	-569.99	225.8	442.97	-490.51	305.05	441.7	-566.7	115.63	417.02	-557.48	129.45	339.49	-635.26	68.657	369.8	-625.52	39.877	343.71	-631.11	45.281	404.84	-459.94	39.598	453.98	-427.92	42.362	344.67	-369.85	55.99	389.23	-316.49	695.1	161.92	-216.01	651.63	176.2	-275.97	609.96	181.36	-248.92	734.5	156.81	-221.91	545.38	185.83	-184.44	547.48	311.52	-317.67	350.34	198.84	-266.56	252.93	197.78	-326.44	273.74	206.41	-257.66	328.8	190.14	-317.63	144.66	211.44	-284.61	152.06	292.44	-377.49	125.92	266.86	-366.66	92.478	298.2	-382.28	95.618	236	-220.95	51.257	169.86	-175.59	55.292	269.14	-130.01	61.155	214.33	-465.51	1503.1	375.06	-550.52	1296.3	371.49
